<svg xmlns="http://www.w3.org/2000/svg" xmlns:xlink="http://www.w3.org/1999/xlink" width="307px" height="70px" viewBox="0 0 307.17325603769234 70.4404621065263">
    <g id="e940b75f-b095-4963-aac9-1678a84614ca">
<g style="">
		<g id="e940b75f-b095-4963-aac9-1678a84614ca-child-0">
<path style="stroke: rgb(193,193,193); stroke-width: 0; stroke-dasharray: none; stroke-linecap: butt; stroke-dashoffset: 0; stroke-linejoin: miter; stroke-miterlimit: 4; fill: rgb(40,80,82); fill-rule: nonzero; opacity: 1;" transform="matrix(0.470035 0 0 0.467264 153.586616 35.220198) matrix(1 0 0 1 103.188949 1.185366)  translate(-431.357512, -77.795397)" d="M 277.48 97.61 C 270.93 94.75 266.01 86.35 266.01 78.00 C 266.01 69.17 271.64 60.27 278.68 57.94 C 283.43 56.37 290.54 57.28 294.10 59.92 L 297.00 62.06 L 297.00 53.18 C 297.00 43.38 298.22 41.00 303.26 41.00 C 308.84 41.00 309.00 41.80 309.00 69.95 C 309.00 92.06 308.78 95.94 307.45 97.04 C 305.17 98.93 299.95 98.65 298.41 96.55 C 297.17 94.85 296.91 94.87 292.74 96.88 C 287.80 99.27 281.95 99.55 277.48 97.61 Z M 521.02 97.88 C 519.66 97.34 517.78 96.21 516.85 95.36 C 515.32 93.98 515.05 94.03 514.04 95.92 C 513.27 97.37 511.96 98.00 509.71 97.98 C 507.95 97.98 506.68 98.02 505.77 97.47 C 503.43 96.06 503.44 90.72 503.20 70.42 C 502.93 47.39 503.08 44.57 504.61 42.88 C 506.77 40.49 511.20 40.46 513.35 42.83 C 514.62 44.24 515.00 46.67 515.00 53.36 L 515.00 62.06 L 517.85 59.96 C 526.79 53.34 541.77 59.29 544.94 70.72 C 549.09 85.65 540.23 99.20 526.50 98.93 C 524.85 98.90 522.38 98.43 521.02 97.88 Z M 371.16 113.31 C 368.96 111.52 368.95 111.28 369.22 85.51 L 369.50 59.53 L 372.16 58.25 C 375.31 56.74 380.00 58.07 380.00 60.48 C 380.00 62.50 380.53 62.41 384.13 59.75 C 386.53 57.97 388.49 57.50 393.44 57.52 C 398.74 57.53 400.26 57.96 403.36 60.32 C 412.50 67.30 414.24 80.76 407.36 91.33 C 402.81 98.31 392.32 100.99 384.71 97.11 L 381.00 95.22 L 381.00 102.92 C 381.00 107.54 380.50 111.27 379.75 112.25 C 377.74 114.88 373.69 115.38 371.16 113.31 Z M 210.39 98.02 C 209.46 97.64 208.71 97.37 208.26 96.85 C 206.60 94.91 209.01 89.48 220.91 62.00 C 224.84 52.92 228.81 44.94 229.72 44.25 C 232.11 42.45 237.44 42.71 239.82 44.75 C 242.25 46.84 262.00 91.29 262.00 94.68 C 262.00 97.56 258.26 99.53 254.58 98.61 C 252.80 98.16 251.24 96.43 249.48 92.95 L 246.94 87.94 L 234.72 88.22 L 222.51 88.50 L 220.78 92.17 C 219.09 95.77 215.56 99.06 213.53 98.94 C 212.96 98.90 211.55 98.49 210.39 98.02 Z M 461.38 97.09 C 446.18 90.18 446.44 65.56 461.79 58.77 C 467.28 56.34 473.88 56.79 478.07 59.89 C 480.92 62.00 480.93 62.00 482.00 60.00 C 483.49 57.21 490.48 57.17 491.96 59.93 C 492.56 61.04 493.00 68.79 493.00 78.00 C 493.00 87.21 492.56 94.96 491.96 96.07 C 490.61 98.60 483.55 98.80 482.18 96.35 C 481.33 94.84 480.87 94.89 476.81 96.85 C 471.38 99.48 466.80 99.55 461.38 97.09 Z M 327.90 96.22 C 323.58 93.96 322.04 92.42 319.78 88.10 C 308.88 67.22 333.66 47.50 352.87 61.78 C 360.41 67.39 362.36 81.32 356.78 89.76 C 350.91 98.62 338.02 101.50 327.90 96.22 Z M 587.66 97.54 C 572.73 92.22 570.00 70.53 583.06 61.07 C 592.87 53.97 607.09 56.59 612.72 66.53 C 615.20 70.91 615.80 78.80 613.80 80.80 C 612.99 81.61 608.42 82.00 599.80 82.00 C 585.87 82.00 584.32 82.75 589.63 86.93 C 592.81 89.43 598.53 89.64 603.77 87.45 C 608.55 85.46 611.78 86.27 612.64 89.69 C 614.36 96.56 598.70 101.48 587.66 97.54 Z M 629.00 97.83 C 622.50 95.99 618.95 90.45 622.20 87.20 C 623.91 85.49 626.07 85.70 631.48 88.09 C 634.77 89.55 637.22 89.99 639.57 89.55 C 646.79 88.20 644.96 84.88 635.49 82.13 C 626.24 79.44 623.06 76.84 622.33 71.41 C 621.08 62.12 628.68 56.30 640.79 57.27 C 648.60 57.90 652.36 60.27 652.81 64.84 C 653.06 67.36 652.64 68.21 650.71 69.09 C 648.75 69.98 647.51 69.79 644.18 68.09 C 639.46 65.68 637.09 65.48 634.64 67.28 C 631.69 69.43 633.72 71.66 640.31 73.50 C 648.77 75.86 651.70 77.52 653.48 80.97 C 656.75 87.29 654.32 94.04 647.68 97.06 C 643.11 99.13 634.82 99.48 629.00 97.83 Z M 429.83 97.43 C 424.36 95.08 423.00 91.32 423.00 78.60 C 423.00 68.04 422.99 68.00 420.57 68.00 C 417.54 68.00 415.00 65.55 415.00 62.63 C 415.00 59.62 416.82 58.00 420.20 58.00 C 422.85 58.00 423.00 57.76 423.00 53.57 C 423.00 48.38 424.89 46.00 429.01 46.00 C 432.67 46.00 435.00 49.20 435.00 54.22 C 435.00 57.95 435.05 58.00 438.94 58.00 C 442.85 58.00 446.00 60.52 446.00 63.65 C 446.00 66.05 442.82 68.00 438.89 68.00 L 434.93 68.00 L 435.21 77.75 L 435.50 87.50 L 439.49 87.82 C 441.68 88.00 444.04 88.62 444.74 89.20 C 446.49 90.65 446.32 95.49 444.47 97.03 C 442.09 99.00 434.00 99.22 429.83 97.43 Z M 557.22 97.44 C 555.02 95.90 555.00 95.63 555.00 69.48 C 555.00 44.39 555.10 43.02 556.93 42.04 C 559.53 40.65 563.33 40.73 564.80 42.20 C 565.67 43.07 566.00 50.69 566.00 70.22 L 566.00 97.05 L 563.43 98.02 C 560.09 99.30 559.84 99.28 557.22 97.44 Z M 344.71 86.40 C 345.92 85.63 347.43 83.30 348.06 81.21 C 350.54 72.90 343.36 65.41 335.42 68.03 C 331.06 69.46 329.00 72.44 329.00 77.27 C 329.00 86.91 336.75 91.41 344.71 86.40 Z M 530.75 86.46 C 531.95 85.62 533.46 83.19 534.10 81.06 C 536.55 72.89 528.94 65.38 521.01 68.15 C 514.88 70.28 513.01 79.48 517.59 84.92 C 519.72 87.46 520.92 88.00 524.37 88.00 C 526.67 88.00 529.54 87.31 530.75 86.46 Z M 397.51 84.81 C 403.19 78.05 398.76 67.73 390.16 67.73 C 385.16 67.73 382.41 69.85 381.06 74.74 C 378.08 85.55 390.49 93.15 397.51 84.81 Z M 477.72 87.00 C 478.64 87.00 481.00 80.51 481.00 77.98 C 481.00 71.58 477.56 68.08 471.20 68.03 C 465.23 67.99 462.00 71.46 462.00 77.92 C 462.00 80.48 462.69 83.54 463.54 84.76 C 465.47 87.51 470.55 88.94 474.49 87.84 C 476.14 87.38 477.59 87.00 477.72 87.00 Z M 295.25 84.90 C 296.39 83.52 297.00 81.07 297.00 77.84 C 297.00 71.16 293.99 68.00 287.63 68.00 C 283.89 68.00 282.77 68.49 280.59 71.08 C 277.60 74.63 277.19 79.53 279.51 84.02 C 282.19 89.21 291.29 89.71 295.25 84.90 Z M 241.90 76.40 C 242.35 75.99 236.19 60.89 235.09 59.73 C 234.69 59.31 232.76 63.00 230.80 67.93 C 228.83 72.86 227.39 77.05 227.58 77.25 C 228.02 77.69 241.35 76.90 241.90 76.40 Z M 604.00 72.69 C 604.00 68.64 597.80 65.72 592.29 67.18 C 589.41 67.95 586.00 71.22 586.00 73.22 C 586.00 73.65 590.05 74.00 595.00 74.00 C 601.75 74.00 604.00 73.67 604.00 72.69 Z" stroke-linecap="round"></path>
</g>
		<g id="e940b75f-b095-4963-aac9-1678a84614ca-child-1">
<path style="stroke: rgb(193,193,193); stroke-width: 0; stroke-dasharray: none; stroke-linecap: butt; stroke-dashoffset: 0; stroke-linejoin: miter; stroke-miterlimit: 4; fill: rgb(247,118,92); fill-rule: nonzero; opacity: 1;" transform="matrix(0.470035 0 0 0.467264 153.586616 35.220198) matrix(1 0 0 1 -236.009526 0)  translate(-92.159038, -76.61003)" d="M 45.50 150.53 C 31.86 148.00 22.28 143.16 14.35 134.77 C 8.53 128.62 5.94 124.04 3.46 115.51 C 0.65 105.83 1.15 96.59 5.45 79.02 C 10.28 59.28 10.12 53.49 4.46 42.49 C 1.28 36.30 0.87 34.86 1.95 33.55 C 3.84 31.29 8.32 31.64 10.78 34.26 C 15.46 39.25 17.50 45.85 17.49 56.00 C 17.48 64.01 16.87 67.60 13.62 78.90 C 10.13 91.05 9.81 93.15 10.18 101.40 C 10.66 111.99 13.38 119.09 19.59 125.97 C 23.37 130.15 32.24 135.97 34.86 135.99 C 35.60 136.00 33.73 133.32 30.70 130.04 C 21.58 120.19 16.99 107.95 17.01 93.54 C 17.04 79.59 20.16 70.40 30.52 53.74 C 33.22 49.41 35.36 44.50 36.03 41.08 C 38.68 27.67 40.22 22.13 42.87 16.46 C 45.87 10.05 51.39 3.00 53.41 3.00 C 54.08 3.00 55.19 5.22 55.89 7.94 C 57.41 13.89 58.29 14.71 64.05 15.60 C 70.59 16.60 73.80 18.59 76.74 23.46 C 78.22 25.90 80.82 28.50 82.68 29.39 C 85.26 30.62 86.00 31.58 85.99 33.73 C 85.98 42.59 80.74 49.03 72.05 50.90 C 64.45 52.53 59.71 55.34 56.43 60.18 C 53.76 64.12 53.50 65.24 53.51 73.00 C 53.52 82.90 55.06 86.99 62.39 96.68 C 67.01 102.79 79.69 114.66 90.50 123.00 L 96.06 127.29 L 101.75 123.40 C 109.94 117.79 125.11 102.55 129.83 95.19 C 135.25 86.74 137.39 80.03 137.38 71.50 C 137.37 58.02 132.19 52.72 116.81 50.42 C 104.82 48.63 101.95 47.59 98.29 43.73 C 94.31 39.53 92.11 35.08 91.37 29.70 C 90.54 23.66 91.94 22.63 102.95 21.17 C 114.95 19.57 117.30 18.49 121.80 12.52 C 123.86 9.79 127.03 6.55 128.84 5.33 C 135.97 0.52 151.79 -0.19 159.87 3.93 C 163.69 5.88 178.78 21.28 181.89 26.40 C 183.26 28.66 183.25 29.25 181.82 32.25 C 179.76 36.58 170.51 46.69 166.90 48.55 C 161.99 51.09 157.23 50.43 153.48 46.68 C 149.05 42.25 148.29 37.72 150.36 28.08 C 152.04 20.26 152.51 14.16 151.34 15.32 C 150.02 16.64 145.02 33.59 145.01 36.78 C 144.98 44.23 150.66 52.29 157.16 54.04 C 161.67 55.26 165.07 54.58 170.76 51.33 C 174.75 49.06 175.07 49.02 175.76 50.70 C 176.17 51.69 176.49 58.80 176.49 66.50 C 176.48 79.62 176.28 81.05 173.35 89.26 C 168.75 102.17 164.68 108.32 153.00 120.00 C 138.30 134.70 125.89 141.63 103.81 147.48 C 86.87 151.97 60.68 153.33 45.50 150.53 Z" stroke-linecap="round"></path>
</g>
</g>
</g>

  </svg>