
      <svg data-logo="logo" xmlns="http://www.w3.org/2000/svg" viewBox="0 0 266 43">
        <g id="logogram" transform="translate(0, 1) rotate(0) "><path d="M45.8693 4.61295C46.667 3.72652 47.5535 2.99522 48.4621 2.41904C50.0576 1.42181 51.7418 0.889954 53.4704 0.889954V15.3609C52.2072 10.9731 49.4814 7.20574 45.8693 4.61295ZM67.3873 40.89H16.1296C7.7086 40.89 0.905273 34.0645 0.905273 25.6656C0.905273 17.6213 7.15458 11.0174 15.0659 10.4634V0.889954C16.8388 0.889954 18.5895 1.39965 20.2294 2.41904C21.138 2.97306 22.0244 3.70436 22.8222 4.54646C26.0798 2.26391 30.0244 0.934275 34.3014 0.934275C34.3014 10.1753 30.9773 20.9232 20.1629 20.9454H34.1906C33.7917 19.1503 32.1518 17.8207 30.2017 17.7985H38.3568C36.4067 17.7985 34.7668 19.1503 34.3679 20.9675H47.4427C50.0576 20.9675 52.6504 21.4772 55.0881 22.4966C57.5036 23.4938 59.7197 24.9786 61.559 26.8179C63.4205 28.6794 64.8831 30.8733 65.8803 33.2888C66.8776 35.6822 67.3873 38.275 67.3873 40.89ZM23.6864 10.7293C24.0188 11.5936 24.9053 12.5686 26.1463 13.2778C27.3873 13.9869 28.6726 14.275 29.5812 14.142C29.2488 13.2778 28.3623 12.3027 27.1213 11.5936C25.8803 10.8844 24.595 10.5963 23.6864 10.7293ZM42.3457 13.2778C41.1047 13.9869 39.8194 14.275 38.9108 14.142C39.2432 13.2778 40.1297 12.3027 41.3706 11.5936C42.6116 10.8844 43.897 10.5963 44.8055 10.7293C44.4953 11.5936 43.5867 12.5686 42.3457 13.2778Z" fill="#AE98CD"/></g>
        <g id="logotype" transform="translate(71, 1.5)"><path fill="#ae98cd " d="M20.61 13.92L20.61 13.92Q21.52 13.92 22.11 14.52Q22.71 15.11 22.71 16.06L22.71 16.06L22.71 30.86Q22.71 31.77 22.11 32.39Q21.52 33 20.61 33L20.61 33Q19.70 33 19.10 32.39Q18.51 31.77 18.51 30.86L18.51 30.86L18.51 29.15L19.28 29.46Q19.28 29.92 18.79 30.57Q18.30 31.21 17.46 31.84Q16.62 32.48 15.48 32.91Q14.34 33.35 13.01 33.35L13.01 33.35Q10.60 33.35 8.64 32.11Q6.68 30.86 5.54 28.68Q4.40 26.49 4.40 23.66L4.40 23.66Q4.40 20.78 5.54 18.60Q6.68 16.41 8.60 15.17Q10.53 13.92 12.87 13.92L12.87 13.92Q14.38 13.92 15.64 14.38Q16.90 14.83 17.82 15.53Q18.75 16.23 19.26 16.95Q19.77 17.67 19.77 18.16L19.77 18.16L18.51 18.61L18.51 16.06Q18.51 15.15 19.10 14.54Q19.70 13.92 20.61 13.92ZM13.54 29.50L13.54 29.50Q15.08 29.50 16.23 28.73Q17.39 27.96 18.03 26.63Q18.68 25.30 18.68 23.66L18.68 23.66Q18.68 21.98 18.03 20.64Q17.39 19.31 16.23 18.54Q15.08 17.77 13.54 17.77L13.54 17.77Q12.03 17.77 10.88 18.54Q9.72 19.31 9.07 20.64Q8.43 21.98 8.43 23.66L8.43 23.66Q8.43 25.30 9.07 26.63Q9.72 27.96 10.88 28.73Q12.03 29.50 13.54 29.50ZM42.59 7.10L42.59 7.10Q43.50 7.10 44.09 7.69Q44.69 8.29 44.69 9.23L44.69 9.23L44.69 30.86Q44.69 31.77 44.09 32.39Q43.50 33 42.59 33L42.59 33Q41.67 33 41.08 32.39Q40.48 31.77 40.48 30.86L40.48 30.86L40.48 29.15L41.26 29.46Q41.26 29.92 40.77 30.57Q40.28 31.21 39.44 31.84Q38.59 32.48 37.46 32.91Q36.32 33.35 34.99 33.35L34.99 33.35Q32.58 33.35 30.62 32.11Q28.66 30.86 27.52 28.68Q26.38 26.49 26.38 23.66L26.38 23.66Q26.38 20.78 27.52 18.60Q28.66 16.41 30.58 15.17Q32.51 13.92 34.85 13.92L34.85 13.92Q36.36 13.92 37.62 14.38Q38.88 14.83 39.80 15.53Q40.73 16.23 41.24 16.95Q41.75 17.67 41.75 18.16L41.75 18.16L40.48 18.61L40.48 9.23Q40.48 8.32 41.08 7.71Q41.67 7.10 42.59 7.10ZM35.52 29.50L35.52 29.50Q37.05 29.50 38.21 28.73Q39.37 27.96 40.01 26.63Q40.66 25.30 40.66 23.66L40.66 23.66Q40.66 21.98 40.01 20.64Q39.37 19.31 38.21 18.54Q37.05 17.77 35.52 17.77L35.52 17.77Q34.01 17.77 32.86 18.54Q31.70 19.31 31.05 20.64Q30.41 21.98 30.41 23.66L30.41 23.66Q30.41 25.30 31.05 26.63Q31.70 27.96 32.86 28.73Q34.01 29.50 35.52 29.50ZM67.40 23.66L67.40 23.66Q67.40 26.52 66.12 28.71Q64.84 30.90 62.69 32.13Q60.54 33.35 57.88 33.35L57.88 33.35Q55.22 33.35 53.07 32.13Q50.91 30.90 49.64 28.71Q48.36 26.52 48.36 23.66L48.36 23.66Q48.36 20.78 49.64 18.60Q50.91 16.41 53.07 15.17Q55.22 13.92 57.88 13.92L57.88 13.92Q60.54 13.92 62.69 15.17Q64.84 16.41 66.12 18.60Q67.40 20.78 67.40 23.66ZM63.20 23.66L63.20 23.66Q63.20 21.87 62.48 20.56Q61.77 19.24 60.56 18.51Q59.35 17.77 57.88 17.77L57.88 17.77Q56.41 17.77 55.20 18.51Q54.00 19.24 53.28 20.56Q52.56 21.87 52.56 23.66L52.56 23.66Q52.56 25.41 53.28 26.72Q54.00 28.03 55.20 28.77Q56.41 29.50 57.88 29.50L57.88 29.50Q59.35 29.50 60.56 28.77Q61.77 28.03 62.48 26.72Q63.20 25.41 63.20 23.66ZM80.77 13.92L80.77 13.92Q83.22 13.92 85.16 15.17Q87.11 16.41 88.24 18.58Q89.38 20.75 89.38 23.62L89.38 23.62Q89.38 26.49 88.24 28.68Q87.11 30.86 85.20 32.11Q83.29 33.35 80.91 33.35L80.91 33.35Q79.51 33.35 78.29 32.90Q77.06 32.44 76.13 31.74Q75.21 31.04 74.70 30.32Q74.19 29.61 74.19 29.11L74.19 29.11L75.28 28.66L75.28 37.87Q75.28 38.77 74.68 39.39Q74.09 40 73.18 40L73.18 40Q72.27 40 71.67 39.41Q71.08 38.81 71.08 37.87L71.08 37.87L71.08 16.41Q71.08 15.50 71.67 14.89Q72.27 14.27 73.18 14.27L73.18 14.27Q74.09 14.27 74.68 14.89Q75.28 15.50 75.28 16.41L75.28 16.41L75.28 18.13L74.68 17.81Q74.68 17.35 75.17 16.71Q75.66 16.06 76.50 15.41Q77.34 14.76 78.44 14.34Q79.55 13.92 80.77 13.92ZM80.25 17.77L80.25 17.77Q78.71 17.77 77.55 18.54Q76.40 19.31 75.75 20.63Q75.10 21.94 75.10 23.62L75.10 23.62Q75.10 25.27 75.75 26.61Q76.40 27.96 77.55 28.73Q78.71 29.50 80.25 29.50L80.25 29.50Q81.79 29.50 82.92 28.73Q84.06 27.96 84.71 26.61Q85.36 25.27 85.36 23.62L85.36 23.62Q85.36 21.94 84.71 20.63Q84.06 19.31 82.92 18.54Q81.79 17.77 80.25 17.77ZM93.27 14.63L93.27 14.63L101.56 14.63Q102.40 14.63 102.96 15.18Q103.52 15.74 103.52 16.58L103.52 16.58Q103.52 17.39 102.96 17.93Q102.40 18.47 101.56 18.47L101.56 18.47L93.27 18.47Q92.43 18.47 91.87 17.91Q91.31 17.35 91.31 16.51L91.31 16.51Q91.31 15.71 91.87 15.17Q92.43 14.63 93.27 14.63ZM97.01 10.25L97.01 10.25Q97.92 10.25 98.50 10.86Q99.08 11.47 99.08 12.38L99.08 12.38L99.08 27.96Q99.08 28.45 99.27 28.77Q99.46 29.08 99.79 29.22Q100.13 29.36 100.51 29.36L100.51 29.36Q100.93 29.36 101.28 29.20Q101.63 29.04 102.09 29.04L102.09 29.04Q102.58 29.04 102.98 29.50Q103.38 29.95 103.38 30.76L103.38 30.76Q103.38 31.74 102.31 32.37Q101.25 33 100.02 33L100.02 33Q99.29 33 98.39 32.88Q97.50 32.76 96.71 32.28Q95.93 31.81 95.40 30.83Q94.88 29.85 94.88 28.13L94.88 28.13L94.88 12.38Q94.88 11.47 95.49 10.86Q96.10 10.25 97.01 10.25ZM122.70 13.92L122.70 13.92Q123.61 13.92 124.21 14.52Q124.80 15.11 124.80 16.06L124.80 16.06L124.80 30.86Q124.80 31.77 124.21 32.39Q123.61 33 122.70 33L122.70 33Q121.79 33 121.20 32.39Q120.60 31.77 120.60 30.86L120.60 30.86L120.60 29.15L121.37 29.46Q121.37 29.92 120.88 30.57Q120.39 31.21 119.55 31.84Q118.71 32.48 117.57 32.91Q116.44 33.35 115.11 33.35L115.11 33.35Q112.69 33.35 110.73 32.11Q108.77 30.86 107.63 28.68Q106.50 26.49 106.50 23.66L106.50 23.66Q106.50 20.78 107.63 18.60Q108.77 16.41 110.70 15.17Q112.62 13.92 114.97 13.92L114.97 13.92Q116.47 13.92 117.73 14.38Q118.99 14.83 119.92 15.53Q120.85 16.23 121.35 16.95Q121.86 17.67 121.86 18.16L121.86 18.16L120.60 18.61L120.60 16.06Q120.60 15.15 121.20 14.54Q121.79 13.92 122.70 13.92ZM115.63 29.50L115.63 29.50Q117.17 29.50 118.33 28.73Q119.48 27.96 120.13 26.63Q120.78 25.30 120.78 23.66L120.78 23.66Q120.78 21.98 120.13 20.64Q119.48 19.31 118.33 18.54Q117.17 17.77 115.63 17.77L115.63 17.77Q114.13 17.77 112.97 18.54Q111.82 19.31 111.17 20.64Q110.52 21.98 110.52 23.66L110.52 23.66Q110.52 25.30 111.17 26.63Q111.82 27.96 112.97 28.73Q114.13 29.50 115.63 29.50ZM139.05 13.92L139.05 13.92Q141.50 13.92 143.44 15.17Q145.38 16.41 146.52 18.58Q147.66 20.75 147.66 23.62L147.66 23.62Q147.66 26.49 146.52 28.68Q145.38 30.86 143.47 32.11Q141.57 33.35 139.19 33.35L139.19 33.35Q137.79 33.35 136.56 32.90Q135.34 32.44 134.41 31.74Q133.48 31.04 132.97 30.32Q132.47 29.61 132.47 29.11L132.47 29.11L133.55 28.66L133.55 31.21Q133.55 32.13 132.96 32.74Q132.36 33.35 131.45 33.35L131.45 33.35Q130.54 33.35 129.95 32.76Q129.35 32.16 129.35 31.21L129.35 31.21L129.35 9.23Q129.35 8.32 129.95 7.71Q130.54 7.10 131.45 7.10L131.45 7.10Q132.36 7.10 132.96 7.71Q133.55 8.32 133.55 9.23L133.55 9.23L133.55 18.13L132.96 17.81Q132.96 17.35 133.45 16.71Q133.94 16.06 134.78 15.41Q135.62 14.76 136.72 14.34Q137.82 13.92 139.05 13.92ZM138.52 17.77L138.52 17.77Q136.98 17.77 135.83 18.54Q134.67 19.31 134.02 20.63Q133.38 21.94 133.38 23.62L133.38 23.62Q133.38 25.27 134.02 26.61Q134.67 27.96 135.83 28.73Q136.98 29.50 138.52 29.50L138.52 29.50Q140.06 29.50 141.20 28.73Q142.34 27.96 142.98 26.61Q143.63 25.27 143.63 23.62L143.63 23.62Q143.63 21.94 142.98 20.63Q142.34 19.31 141.20 18.54Q140.06 17.77 138.52 17.77ZM155.88 9.23L155.88 30.86Q155.88 31.77 155.27 32.39Q154.66 33 153.75 33L153.75 33Q152.87 33 152.28 32.39Q151.68 31.77 151.68 30.86L151.68 30.86L151.68 9.23Q151.68 8.32 152.29 7.71Q152.91 7.10 153.81 7.10L153.81 7.10Q154.72 7.10 155.30 7.71Q155.88 8.32 155.88 9.23L155.88 9.23ZM169.25 33.35L169.25 33.35Q166.28 33.35 164.09 32.11Q161.90 30.86 160.73 28.73Q159.56 26.59 159.56 23.90L159.56 23.90Q159.56 20.75 160.83 18.53Q162.11 16.30 164.18 15.11Q166.24 13.92 168.55 13.92L168.55 13.92Q170.34 13.92 171.93 14.66Q173.52 15.39 174.75 16.67Q175.97 17.95 176.69 19.63Q177.41 21.31 177.41 23.20L177.41 23.20Q177.37 24.04 176.74 24.56Q176.11 25.09 175.27 25.09L175.27 25.09L161.90 25.09L160.85 21.59L173.69 21.59L172.93 22.29L172.93 21.34Q172.85 20.33 172.21 19.52Q171.56 18.72 170.60 18.25Q169.63 17.77 168.55 17.77L168.55 17.77Q167.50 17.77 166.59 18.05Q165.68 18.34 165.02 19Q164.35 19.66 163.97 20.78Q163.58 21.91 163.58 23.62L163.58 23.62Q163.58 25.51 164.37 26.82Q165.16 28.13 166.40 28.82Q167.64 29.50 169.04 29.50L169.04 29.50Q170.34 29.50 171.10 29.29Q171.88 29.08 172.35 28.78Q172.82 28.48 173.21 28.27L173.21 28.27Q173.84 27.96 174.40 27.96L174.40 27.96Q175.16 27.96 175.67 28.48Q176.18 29.01 176.18 29.71L176.18 29.71Q176.18 30.66 175.20 31.43L175.20 31.43Q174.29 32.20 172.65 32.77Q171 33.35 169.25 33.35ZM180.00 30.09L180.00 30.09Q179.65 29.61 179.68 28.84Q179.72 28.06 180.59 27.50L180.59 27.50Q181.15 27.16 181.78 27.21Q182.41 27.26 183.00 27.86L183.00 27.86Q184.02 28.87 185.14 29.43Q186.26 29.99 187.94 29.99L187.94 29.99Q188.47 29.95 189.09 29.83Q189.73 29.71 190.20 29.27Q190.67 28.84 190.67 27.93L190.67 27.93Q190.67 27.16 190.15 26.70Q189.62 26.24 188.76 25.93Q187.91 25.61 186.86 25.34L186.86 25.34Q185.77 25.02 184.63 24.63Q183.50 24.25 182.55 23.64Q181.61 23.02 181.01 22.01Q180.42 20.99 180.42 19.45L180.42 19.45Q180.42 17.70 181.40 16.48Q182.38 15.25 183.93 14.59Q185.49 13.92 187.21 13.92L187.21 13.92Q188.29 13.92 189.48 14.19Q190.67 14.45 191.75 15.03Q192.84 15.60 193.58 16.55L193.58 16.55Q193.96 17.07 194.03 17.81Q194.10 18.54 193.37 19.14L193.37 19.14Q192.84 19.56 192.14 19.51Q191.44 19.45 190.99 19.03L190.99 19.03Q190.39 18.27 189.39 17.81Q188.40 17.35 187.10 17.35L187.10 17.35Q186.58 17.35 185.96 17.48Q185.35 17.60 184.90 18.00Q184.44 18.41 184.44 19.28L184.44 19.28Q184.44 20.09 184.97 20.56Q185.49 21.03 186.38 21.33Q187.28 21.63 188.29 21.91L188.29 21.91Q189.34 22.18 190.43 22.57Q191.51 22.95 192.42 23.59Q193.33 24.21 193.89 25.21Q194.45 26.21 194.45 27.75L194.45 27.75Q194.45 29.54 193.40 30.80Q192.35 32.05 190.78 32.70Q189.20 33.35 187.56 33.35L187.56 33.35Q185.49 33.35 183.43 32.63Q181.36 31.91 180.00 30.09Z"/></g>
        
      </svg>
    